<svg width="12" height="16" viewBox="0 0 12 16" fill="none" xmlns="http://www.w3.org/2000/svg">
<g id="Group">
<g id="Vector">
<path d="M10.9909 12.2407H10.1007V8.42554C10.1007 6.85277 9.2617 5.39966 7.89966 4.61327C6.53765 3.82683 4.85951 3.82683 3.49753 4.61327C2.13551 5.3996 1.29652 6.85283 1.29652 8.42554V12.2407H0.40625V15.4593H10.9909L10.9909 12.2407ZM2.60068 8.42554C2.60068 7.31884 3.19104 6.29618 4.14955 5.74277C5.10795 5.18936 6.28889 5.18936 7.24735 5.74277C8.20586 6.29618 8.79622 7.31884 8.79622 8.42554V12.2407H2.60062L2.60068 8.42554ZM9.6866 14.155H1.71064V13.5452H9.6866V14.155Z" fill="#D20229"/>
<path d="M10.9909 12.2407H10.1007V8.42554C10.1007 6.85277 9.2617 5.39966 7.89966 4.61327C6.53765 3.82683 4.85951 3.82683 3.49753 4.61327C2.13551 5.3996 1.29652 6.85283 1.29652 8.42554V12.2407H0.40625V15.4593H10.9909L10.9909 12.2407ZM2.60068 8.42554C2.60068 7.31884 3.19104 6.29618 4.14955 5.74277C5.10795 5.18936 6.28889 5.18936 7.24735 5.74277C8.20586 6.29618 8.79622 7.31884 8.79622 8.42554V12.2407H2.60062L2.60068 8.42554ZM9.6866 14.155H1.71064V13.5452H9.6866V14.155Z" stroke="#D20229"/>
</g>
<path id="Vector_2" d="M5.8125 6.52425L5.8125 9.33984" stroke="#D20229" stroke-width="0.699606" stroke-miterlimit="10" stroke-linecap="round" stroke-linejoin="round"/>
<path id="Vector_3" d="M5.8125 10.9588L5.8125 11.4492" stroke="#D20229" stroke-width="0.699606" stroke-miterlimit="10" stroke-linecap="round" stroke-linejoin="round"/>
<g id="Vector_4">
<path d="M5.04688 -0.0078125H6.35124V3.03467H5.04688V-0.0078125Z" fill="#D20229"/>
<path d="M5.04688 -0.0078125H6.35124V3.03467H5.04688V-0.0078125Z" stroke="#D20229"/>
</g>
<g id="Vector_5">
<path d="M7.92188 3.5378L10.1892 1.41016L11.0817 2.36127L8.81441 4.48891L7.92188 3.5378Z" fill="#D20229"/>
<path d="M7.92188 3.5378L10.1892 1.41016L11.0817 2.36127L8.81441 4.48891L7.92188 3.5378Z" stroke="#D20229"/>
</g>
<g id="Vector_6">
<path d="M0.328125 2.36151L1.22055 1.41016L3.4882 3.53733L2.59578 4.48868L0.328125 2.36151Z" fill="#D20229"/>
<path d="M0.328125 2.36151L1.22055 1.41016L3.4882 3.53733L2.59578 4.48868L0.328125 2.36151Z" stroke="#D20229"/>
</g>
</g>
</svg>
