<svg width="32" height="33" viewBox="0 0 32 33" fill="none" xmlns="http://www.w3.org/2000/svg">
<rect x="0.625" y="0.8125" width="31.3789" height="31.3789" rx="15.6895" fill="#FFF0F0"/>
<path fill-rule="evenodd" clip-rule="evenodd" d="M17.1024 23.1825L10.6094 23.188L10.6561 22.961L15.3882 22.8266C16.2953 22.7925 17.1757 22.7451 18.0294 22.4564C19.778 21.878 21.1709 20.6981 21.5811 19.2372C22.0202 17.6717 21.0097 16.148 19.1066 16.0169C20.7196 15.5487 22.0947 14.5362 22.4604 13.2318C22.9361 11.5384 22.0758 10.6824 20.6229 10.3684C23.0395 10.331 24.9293 11.1363 24.2857 13.4279C23.9199 14.7323 22.5115 15.7239 20.9085 16.1568C22.7905 16.2957 23.8232 18.0727 23.3241 19.6206C22.805 21.2324 21.4922 22.2339 19.7447 22.8123C18.8898 23.0998 18.0094 23.1472 17.1024 23.1825Z" fill="#FF4B19"/>
<path fill-rule="evenodd" clip-rule="evenodd" d="M13.6957 22.3722L10.6488 22.5221C10.6476 22.445 10.6521 22.4626 10.6432 22.3877L18.3612 20.1247L18.3868 19.8482L10.502 21.8688C10.4776 21.7949 10.4753 21.8148 10.4431 21.7454L18.6958 17.2162L18.6124 16.9904L10.1808 21.3113C10.1296 21.2397 10.1519 21.2705 10.0929 21.2055L19.903 12.1263L19.783 11.8806L9.73167 20.8849C9.68387 20.8519 9.65274 20.8276 9.60272 20.7979L16.7949 10.5365L16.4926 10.5387L9.13028 20.5831C9.08915 20.5687 9.04357 20.5566 9.00133 20.5445L13.2755 10.52H13.0032L8.40439 20.4685C8.3477 20.4674 8.21875 20.4685 8.21875 20.4685L11.1946 9.81491L16.7538 9.83143C19.3828 9.6827 21.4604 10.3856 20.7767 12.8204C20.411 14.1248 19.0359 15.1384 17.4319 15.5714L17.4219 15.6055C19.3261 15.7377 20.3988 17.257 19.9586 18.8214C19.5484 20.2823 18.0833 21.4226 16.3358 22.0021C15.4832 22.2907 14.6028 22.3381 13.6957 22.3722Z" fill="#FF4B19"/>
</svg>
