<svg width="20" height="20" viewBox="0 0 20 20" fill="none" xmlns="http://www.w3.org/2000/svg">
<path d="M6.48277 11.6526L9.30943 14.4793C9.68276 14.8526 10.3228 14.8526 10.7494 14.4793L13.5761 11.6526L14.2695 10.9593C15.2295 9.99927 15.2828 8.39927 14.3761 7.38594C13.8961 6.8526 13.2028 6.58594 12.5628 6.58594C11.9228 6.58594 11.2828 6.8526 10.8028 7.3326L10.3228 7.8126C10.1628 7.9726 9.94943 7.9726 9.84276 7.8126L9.36278 7.3326C8.88278 6.8526 8.24279 6.58594 7.60279 6.58594C6.96279 6.58594 6.26944 6.8526 5.78944 7.38594C4.82944 8.39927 4.88278 9.94594 5.89612 10.9593L6.48277 11.6526L9.30943 14.4793C9.68276 14.8526 10.3228 14.8526 10.7494 14.4793L13.5761 11.6526" fill="#FF5C34"/>
<path d="M10 18.7797C14.9093 18.7797 18.8891 14.7999 18.8891 9.89062C18.8891 4.98132 14.9093 1.00154 10 1.00154C5.0907 1.00154 1.11092 4.98132 1.11092 9.89062C1.11092 14.7999 5.0907 18.7797 10 18.7797Z" stroke="#1F3C66" stroke-width="1.77816" stroke-miterlimit="10" stroke-linecap="round" stroke-linejoin="round"/>
</svg>
