<svg width="28" height="28" viewBox="0 0 28 28" fill="none" xmlns="http://www.w3.org/2000/svg">
<path d="M25.586 7.89172L21.6543 23.6768C21.3743 24.8551 20.3243 25.6717 19.111 25.6717H3.78097C2.0193 25.6717 0.759317 23.945 1.28432 22.2533L6.19597 6.4801C6.53431 5.38344 7.54932 4.625 8.69266 4.625H23.0426C24.151 4.625 25.0727 5.30167 25.4577 6.23501C25.6793 6.73667 25.726 7.30839 25.586 7.89172Z" stroke="#1F3C66" stroke-width="1.8" stroke-miterlimit="10"/>
<path d="M18.6719 25.6667H24.2485C25.7535 25.6667 26.9319 24.395 26.8269 22.89L25.6719 7" stroke="#1F3C66" stroke-width="1.8" stroke-miterlimit="10" stroke-linecap="round" stroke-linejoin="round"/>
<path d="M11.2969 7.44689L12.5104 2.40625" stroke="#1F3C66" stroke-width="1.8" stroke-miterlimit="10" stroke-linecap="round" stroke-linejoin="round"/>
<path d="M19.1094 7.45462L20.2062 2.39062" stroke="#1F3C66" stroke-width="1.8" stroke-miterlimit="10" stroke-linecap="round" stroke-linejoin="round"/>
<path d="M8.98438 14H18.3177" stroke="#FF5C34" stroke-width="1.8" stroke-miterlimit="10" stroke-linecap="round" stroke-linejoin="round"/>
<path d="M7.8125 18.6641H17.1458" stroke="#FF5C34" stroke-width="1.8" stroke-miterlimit="10" stroke-linecap="round" stroke-linejoin="round"/>
</svg>
