<svg width="28" height="28" viewBox="0 0 28 28" fill="none" xmlns="http://www.w3.org/2000/svg">
<path d="M18.6641 25.6641H24.24C25.7447 25.6641 26.9229 24.3926 26.8179 22.8878L25.6631 7" stroke="#1F3C66" stroke-width="1.8" stroke-miterlimit="10" stroke-linecap="round" stroke-linejoin="round"/>
<path d="M25.5904 7.88346L21.6593 23.6663C21.3793 24.8445 20.3295 25.661 19.1163 25.661H3.78841C2.02699 25.661 0.767186 23.9345 1.29211 22.243L6.20308 6.47203C6.54137 5.37552 7.55625 4.61719 8.69942 4.61719H23.0474C24.1556 4.61719 25.0771 5.29377 25.4621 6.22697C25.6837 6.72857 25.7304 7.3002 25.5904 7.88346Z" stroke="#1F3C66" stroke-width="1.8" stroke-miterlimit="10"/>
<path d="M11.2969 7.43697L12.5099 2.39844" stroke="#1F3C66" stroke-width="1.8" stroke-miterlimit="10" stroke-linecap="round" stroke-linejoin="round"/>
<path d="M19.1172 7.45251L20.2136 2.39062" stroke="#1F3C66" stroke-width="1.8" stroke-miterlimit="10" stroke-linecap="round" stroke-linejoin="round"/>
<path d="M10.5938 11.2266H16.2469" stroke="#FF5C34" stroke-width="1.8" stroke-miterlimit="10" stroke-linecap="round" stroke-linejoin="round"/>
<path d="M10.5938 14.2031H16.2469" stroke="#FF5C34" stroke-width="1.8" stroke-miterlimit="10" stroke-linecap="round" stroke-linejoin="round"/>
<path d="M10.5938 11.2266H12.4204C14.0731 11.2266 15.3779 12.5404 15.3779 14.2045C15.3779 15.8686 14.0731 17.1824 12.4204 17.1824H10.5938L15.3779 19.9852" stroke="#FF5C34" stroke-width="1.8" stroke-miterlimit="10" stroke-linecap="round" stroke-linejoin="round"/>
</svg>
