<svg width="36" height="25" viewBox="0 0 36 25" fill="none" xmlns="http://www.w3.org/2000/svg">
<path d="M19.5703 7.77344H26.6137" stroke="#FF5C34" stroke-width="1.98143" stroke-miterlimit="10" stroke-linecap="round" stroke-linejoin="round"/>
<path d="M19.5703 11.4844H26.6137" stroke="#FF5C34" stroke-width="1.98143" stroke-miterlimit="10" stroke-linecap="round" stroke-linejoin="round"/>
<path d="M19.5703 7.77344H21.8459C23.9047 7.77344 25.5301 9.41008 25.5301 11.4832C25.5301 13.5562 23.9047 15.1929 21.8459 15.1929H19.5703L25.5301 18.6844" stroke="#FF5C34" stroke-width="1.98143" stroke-miterlimit="10" stroke-linecap="round" stroke-linejoin="round"/>
<path d="M23.1549 1.33594C29.3314 1.33594 34.316 6.35498 34.316 12.5742C34.316 18.7935 29.3314 23.8125 23.1549 23.8125C16.9785 23.8125 11.9939 18.7935 11.9939 12.5742C11.8856 6.35498 16.8701 1.33594 23.1549 1.33594Z" stroke="#1F3C66" stroke-width="1.98143" stroke-miterlimit="10" stroke-linecap="round" stroke-linejoin="round"/>
<path d="M4.625 20.8594H10.1513" stroke="#1F3C66" stroke-width="1.98143" stroke-miterlimit="10" stroke-linecap="round" stroke-linejoin="round"/>
<path d="M1.80469 12.5703H7.33102" stroke="#1F3C66" stroke-width="1.98143" stroke-miterlimit="10" stroke-linecap="round" stroke-linejoin="round"/>
<path d="M4.625 4.27344H10.1513" stroke="#1F3C66" stroke-width="1.98143" stroke-miterlimit="10" stroke-linecap="round" stroke-linejoin="round"/>
</svg>
