<svg width="31" height="30" viewBox="0 0 31 30" fill="none" xmlns="http://www.w3.org/2000/svg">
<path d="M27.6767 29.0039C28.7577 29.0039 29.6112 28.1504 29.6112 27.0693V10.2274V5.50486C29.6112 4.42379 28.7577 3.57031 27.6767 3.57031H24.4904H6.73804H3.55174C2.47068 3.57031 1.61719 4.42379 1.61719 5.50486V27.0693C1.61719 28.1504 2.47068 29.0039 3.55174 29.0039H27.6767V29.0039Z" stroke="#1F3C66" stroke-width="1.8" stroke-miterlimit="10" stroke-linecap="round" stroke-linejoin="round"/>
<path d="M6.79688 1V5.78013" stroke="#1F3C66" stroke-width="1.8" stroke-miterlimit="10" stroke-linecap="round" stroke-linejoin="round"/>
<path d="M24.4922 1V5.78013" stroke="#1F3C66" stroke-width="1.8" stroke-miterlimit="10" stroke-linecap="round" stroke-linejoin="round"/>
<path d="M1.78906 10.2266H29.6124" stroke="#1F3C66" stroke-width="1.8" stroke-miterlimit="10" stroke-linecap="round" stroke-linejoin="round"/>
<path d="M6.17188 14.375H9.35817" stroke="#1F3C66" stroke-width="1.8" stroke-miterlimit="10" stroke-linecap="round" stroke-linejoin="round"/>
<path d="M14.0781 14.375H17.2644" stroke="#FF5C34" stroke-width="1.8" stroke-miterlimit="10" stroke-linecap="round" stroke-linejoin="round"/>
<path d="M22.0469 14.375H25.2332" stroke="#1F3C66" stroke-width="1.8" stroke-miterlimit="10" stroke-linecap="round" stroke-linejoin="round"/>
<path d="M6.17188 19.6641H9.35817" stroke="#FF5C34" stroke-width="1.8" stroke-miterlimit="10" stroke-linecap="round" stroke-linejoin="round"/>
<path d="M14.0781 19.6641H17.2644" stroke="#1F3C66" stroke-width="1.8" stroke-miterlimit="10" stroke-linecap="round" stroke-linejoin="round"/>
<path d="M6.17188 25.0156H9.35817" stroke="#1F3C66" stroke-width="1.8" stroke-miterlimit="10" stroke-linecap="round" stroke-linejoin="round"/>
<path d="M14.0781 25.0156H17.2644" stroke="#FF5C34" stroke-width="1.8" stroke-miterlimit="10" stroke-linecap="round" stroke-linejoin="round"/>
<path d="M22.0469 19.6641H25.2332" stroke="#FF5C34" stroke-width="1.8" stroke-miterlimit="10" stroke-linecap="round" stroke-linejoin="round"/>
<path d="M22.0469 25.0156H25.2332" stroke="#1F3C66" stroke-width="1.8" stroke-miterlimit="10" stroke-linecap="round" stroke-linejoin="round"/>
</svg>
