<svg width="30" height="30" viewBox="0 0 30 30" fill="none" xmlns="http://www.w3.org/2000/svg">
<path d="M29.0412 6.22667L16.1612 1L3.28125 6.22667L16.1612 11.36L29.0412 6.22667Z" stroke="#1F3C66" stroke-width="1.8" stroke-miterlimit="10" stroke-linecap="round" stroke-linejoin="round"/>
<path d="M24.5625 13.88V8" stroke="#1F3C66" stroke-width="1.8" stroke-miterlimit="10" stroke-linecap="round" stroke-linejoin="round"/>
<path d="M7.76172 8V17.6133C11.4017 19.2 14.9484 19.76 18.5884 19.2933" stroke="#1F3C66" stroke-width="1.8" stroke-miterlimit="10" stroke-linecap="round" stroke-linejoin="round"/>
<path d="M3.28125 6.22656V12.1066" stroke="#1F3C66" stroke-width="1.8" stroke-miterlimit="10" stroke-linecap="round" stroke-linejoin="round"/>
<path d="M3.28125 16.6797V18.453" stroke="#1F3C66" stroke-width="1.8" stroke-miterlimit="10" stroke-linecap="round" stroke-linejoin="round"/>
<path d="M3.31123 16.677L5.62109 14.3672L3.31123 12.0573L1.00137 14.3672L3.31123 16.677Z" stroke="#1F3C66" stroke-width="1.8" stroke-miterlimit="10" stroke-linecap="round" stroke-linejoin="round"/>
<path d="M19.8013 17.3359L16.628 22.0959C14.668 25.0826 16.8147 29.0026 20.268 29.0026H22.4147H24.5614C28.108 29.0026 30.2547 25.0826 28.2013 22.0959L25.028 17.3359" stroke="#FF5C34" stroke-width="1.8" stroke-miterlimit="10" stroke-linecap="round" stroke-linejoin="round"/>
<path d="M19.2406 16.4004L18.5872 14.5337C18.4005 13.8804 19.0539 13.4137 19.6139 13.6004L20.3606 13.9737C20.5472 14.0671 20.7339 14.0671 20.9205 13.9737L22.1339 13.4137C22.3205 13.3204 22.5072 13.3204 22.6939 13.4137L23.9072 13.9737C24.0939 14.0671 24.2805 14.0671 24.4672 13.9737L25.2139 13.6004C25.7739 13.3204 26.4272 13.8804 26.2406 14.5337L25.5872 16.4004" stroke="#FF5C34" stroke-width="1.8" stroke-miterlimit="10" stroke-linecap="round" stroke-linejoin="round"/>
<path d="M20.2656 20.2266H24.6523" stroke="#FF5C34" stroke-width="1.8" stroke-miterlimit="10" stroke-linecap="round" stroke-linejoin="round"/>
<path d="M20.2656 22.4688H24.6523" stroke="#FF5C34" stroke-width="1.8" stroke-miterlimit="10" stroke-linecap="round" stroke-linejoin="round"/>
<path d="M20.2656 20.2266H21.6656C22.9723 20.2266 23.999 21.2532 23.999 22.5599C23.999 23.8666 22.9723 24.8932 21.6656 24.8932H20.2656L23.999 27.0399" stroke="#FF5C34" stroke-width="1.8" stroke-miterlimit="10" stroke-linecap="round" stroke-linejoin="round"/>
<path d="M17.9375 16.9609H26.9908" stroke="#FF5C34" stroke-width="1.8" stroke-miterlimit="10" stroke-linecap="round" stroke-linejoin="round"/>
</svg>
