<svg width="29" height="27" viewBox="0 0 29 27" fill="none" xmlns="http://www.w3.org/2000/svg">
<path d="M27.1925 1.17188H20.2266" stroke="#1F3C66" stroke-width="1.92332" stroke-miterlimit="10" stroke-linecap="round" stroke-linejoin="round"/>
<path d="M27.1925 5.21875H20.2266" stroke="#1F3C66" stroke-width="1.92332" stroke-miterlimit="10" stroke-linecap="round" stroke-linejoin="round"/>
<path d="M27.1925 9.34375H20.2266" stroke="#1F3C66" stroke-width="1.92332" stroke-miterlimit="10" stroke-linecap="round" stroke-linejoin="round"/>
<path d="M11.7154 12.4463C14.613 12.4463 16.962 10.0973 16.962 7.19973C16.962 4.30211 14.613 1.95312 11.7154 1.95312C8.81776 1.95312 6.46875 4.30211 6.46875 7.19973C6.46875 10.0973 8.81776 12.4463 11.7154 12.4463Z" stroke="#1F3C66" stroke-width="1.92332" stroke-miterlimit="10" stroke-linecap="round" stroke-linejoin="round"/>
<path d="M18.7647 15.0178C16.8725 13.4696 14.4642 12.4375 11.7119 12.4375C6.12127 12.4375 1.56272 16.566 1.30469 21.8126H15.6683" stroke="#1F3C66" stroke-width="1.92332" stroke-miterlimit="10" stroke-linecap="round" stroke-linejoin="round"/>
<path d="M20.8324 25.1648C23.635 25.1648 25.907 22.8928 25.907 20.0902C25.907 17.2876 23.635 15.0156 20.8324 15.0156C18.0298 15.0156 15.7578 17.2876 15.7578 20.0902C15.7578 22.8928 18.0298 25.1648 20.8324 25.1648Z" stroke="#FF5C34" stroke-width="1.92332" stroke-miterlimit="10" stroke-linecap="round" stroke-linejoin="round"/>
<path d="M23.1533 18.5469L19.7124 21.9878L18.25 20.5254" stroke="#FF5C34" stroke-width="1.92332" stroke-miterlimit="10" stroke-linecap="round" stroke-linejoin="round"/>
</svg>
