<svg width="28" height="28" viewBox="0 0 28 28" fill="none" xmlns="http://www.w3.org/2000/svg">
<g clip-path="url(#clip0_1604_139654)">
<path d="M11.9375 9.89062H18.1573" stroke="#1F3C66" stroke-width="1.80645" stroke-miterlimit="10" stroke-linecap="round" stroke-linejoin="round"/>
<path d="M11.9375 13.1328H18.1573" stroke="#1F3C66" stroke-width="1.80645" stroke-miterlimit="10" stroke-linecap="round" stroke-linejoin="round"/>
<path d="M11.9375 9.89062H13.892C15.6689 9.89062 17.1792 11.3781 17.1792 13.1281C17.1792 14.8781 15.6689 16.3656 13.892 16.3656H11.9375L17.1792 19.4281" stroke="#1F3C66" stroke-width="1.80645" stroke-miterlimit="10" stroke-linecap="round" stroke-linejoin="round"/>
<path d="M6.69531 14.6094V18.7224" stroke="#1F3C66" stroke-width="1.80645" stroke-miterlimit="10" stroke-linecap="round" stroke-linejoin="round"/>
<path d="M17.1811 3.49375H23.8442V2.09375L26.5983 4.80625L23.8442 7.51875V6.20625H15.2266" stroke="#1F3C66" stroke-width="1.80645" stroke-miterlimit="10" stroke-linecap="round" stroke-linejoin="round"/>
<path d="M15.2282 23.0953H6.69941V21.6953L3.94531 24.4078L6.69941 27.1203V25.7203H12.8295" stroke="#1F3C66" stroke-width="1.80645" stroke-miterlimit="10" stroke-linecap="round" stroke-linejoin="round"/>
<path d="M23.8413 10.5859V14.6109V17.3234C23.8413 20.4734 21.2649 23.0109 18.0666 23.0109H15.3125" stroke="#1F3C66" stroke-width="1.80645" stroke-miterlimit="10" stroke-linecap="round" stroke-linejoin="round"/>
<path d="M1.27344 11.9C1.27344 5.775 6.24858 0.875 12.4675 0.875" stroke="#FF5C34" stroke-width="1.80645" stroke-miterlimit="10" stroke-linecap="round" stroke-linejoin="round"/>
<path d="M3.85156 11.9016C3.85156 7.26406 7.67176 3.41406 12.4692 3.41406" stroke="#FF5C34" stroke-width="1.80645" stroke-miterlimit="10" stroke-linecap="round" stroke-linejoin="round"/>
<path d="M12.4708 6.21094C9.27209 6.21094 6.69531 8.74879 6.69531 11.8992" stroke="#FF5C34" stroke-width="1.80645" stroke-miterlimit="10" stroke-linecap="round" stroke-linejoin="round"/>
</g>
<defs>
<clipPath id="clip0_1604_139654">
<rect width="27.0968" height="28" fill="white" transform="translate(0.382812)"/>
</clipPath>
</defs>
</svg>
