<svg width="31" height="30" viewBox="0 0 31 30" fill="none" xmlns="http://www.w3.org/2000/svg">
<path d="M23.7175 9.89632V6.43144L18.567 1H2.741C2.08548 1 1.61719 1.56187 1.61719 2.12375V27.8763C1.61719 28.5318 2.17913 29 2.741 29H22.3128C23.062 29 23.7175 28.3445 23.7175 27.5953V23.9431" stroke="#1F3C66" stroke-width="1.8" stroke-miterlimit="10" stroke-linecap="round" stroke-linejoin="round"/>
<path d="M23.3597 23.4849C27.0834 23.4849 30.1021 20.4662 30.1021 16.7425C30.1021 13.0187 27.0834 10 23.3597 10C19.6359 10 16.6172 13.0187 16.6172 16.7425C16.6172 20.4662 19.6359 23.4849 23.3597 23.4849Z" stroke="#FF5C34" stroke-width="1.8" stroke-miterlimit="10" stroke-linecap="round" stroke-linejoin="round"/>
<path d="M21.4819 18.1722L23.2517 19.9419C23.4854 20.1756 23.8861 20.1756 24.1532 19.9419L25.923 18.1722L26.3571 17.7381C26.9581 17.137 26.9915 16.1353 26.4238 15.5009C26.1233 15.167 25.6892 15 25.2885 15C24.8878 15 24.4871 15.167 24.1866 15.4675L23.8861 15.768C23.7859 15.8682 23.6524 15.8682 23.5856 15.768L23.2851 15.4675C22.9845 15.167 22.5839 15 22.1832 15C21.7825 15 21.3484 15.167 21.0479 15.5009C20.4468 16.1353 20.4802 17.1036 21.1146 17.7381L21.4819 18.1722L23.2517 19.9419C23.4854 20.1756 23.8861 20.1756 24.1532 19.9419L25.923 18.1722" fill="#FF5C34"/>
<path d="M18.4766 1V5.30769C18.4766 5.96321 19.0385 6.43144 19.6004 6.43144H23.6271" stroke="#1F3C66" stroke-width="1.8" stroke-miterlimit="10" stroke-linecap="round" stroke-linejoin="round"/>
<path d="M5.35938 10.3672H12.1019" stroke="#1F3C66" stroke-width="1.87291" stroke-miterlimit="10" stroke-linecap="round" stroke-linejoin="round"/>
<path d="M5.35938 15.0488H12.1019" stroke="#1F3C66" stroke-width="1.87291" stroke-miterlimit="10" stroke-linecap="round" stroke-linejoin="round"/>
<path d="M5.35938 19.7324H12.1019" stroke="#1F3C66" stroke-width="1.87291" stroke-miterlimit="10" stroke-linecap="round" stroke-linejoin="round"/>
<path d="M5.35938 24.4141H12.1019" stroke="#1F3C66" stroke-width="1.87291" stroke-miterlimit="10" stroke-linecap="round" stroke-linejoin="round"/>
</svg>
