<svg width="25" height="26" viewBox="0 0 25 26" fill="none" xmlns="http://www.w3.org/2000/svg">
<path d="M14.5954 12.1049C15.5024 12.1049 16.2377 11.3696 16.2377 10.4626C16.2377 9.55558 15.5024 8.82031 14.5954 8.82031C13.6884 8.82031 12.9531 9.55558 12.9531 10.4626C12.9531 11.3696 13.6884 12.1049 14.5954 12.1049Z" stroke="#1F3C66" stroke-width="1.65429" stroke-miterlimit="10" stroke-linecap="round" stroke-linejoin="round"/>
<path d="M11.5234 14.8869H12.9513H17.7345C17.7345 13.3163 16.4495 12.0312 14.8788 12.0312H14.3077C13.5224 12.0312 12.8085 12.3168 12.3087 12.888" stroke="#1F3C66" stroke-width="1.65429" stroke-miterlimit="10" stroke-linecap="round" stroke-linejoin="round"/>
<path d="M14.4765 21.8671C10.6685 23.1036 6.30786 22.0112 3.45481 18.8058C-0.320547 14.4623 0.137916 7.91032 4.48136 4.13497C8.82481 0.359614 15.3768 0.818077 19.1522 5.16153C21.934 8.36196 22.4084 12.8323 20.6488 16.5021" stroke="#1F3C66" stroke-width="1.65429" stroke-miterlimit="10" stroke-linecap="round" stroke-linejoin="round"/>
<path d="M8.67443 11.0286C9.89691 11.0286 10.8879 10.0375 10.8879 8.81506C10.8879 7.59258 9.89691 6.60156 8.67443 6.60156C7.45195 6.60156 6.46094 7.59258 6.46094 8.81506C6.46094 10.0375 7.45195 11.0286 8.67443 11.0286Z" stroke="#1F3C66" stroke-width="1.65429" stroke-miterlimit="10" stroke-linecap="round" stroke-linejoin="round"/>
<path d="M12.8852 14.8864C12.8852 12.7447 11.1718 11.0312 9.03 11.0312H8.31609C6.17434 11.0312 4.46094 12.7447 4.46094 14.8864H12.8852Z" stroke="#1F3C66" stroke-width="1.65429" stroke-miterlimit="10" stroke-linecap="round" stroke-linejoin="round"/>
<path d="M19.3204 24.883C21.6073 24.883 23.4611 23.0291 23.4611 20.7423C23.4611 18.4554 21.6073 16.6016 19.3204 16.6016C17.0336 16.6016 15.1797 18.4554 15.1797 20.7423C15.1797 23.0291 17.0336 24.883 19.3204 24.883Z" stroke="#FF5C34" stroke-width="1.65429" stroke-miterlimit="10" stroke-linecap="round" stroke-linejoin="round"/>
<path d="M19.3203 18.75L21.3196 20.7493L19.3203 22.6772" stroke="#FF5C34" stroke-width="1.65429" stroke-miterlimit="10" stroke-linecap="round" stroke-linejoin="round"/>
<path d="M20.6059 20.75H17.25" stroke="#FF5C34" stroke-width="1.65429" stroke-miterlimit="10" stroke-linecap="round" stroke-linejoin="round"/>
</svg>
