<svg width="14" height="14" viewBox="0 0 14 14" fill="none" xmlns="http://www.w3.org/2000/svg">
<g id="Group">
<path id="Vector" d="M10.375 1.48047C11.4587 2.12267 12.2615 3.16624 12.5826 4.4105" stroke="#909398" stroke-width="0.80301" stroke-miterlimit="10" stroke-linecap="round" stroke-linejoin="round"/>
<path id="Vector_2" d="M4.27006 1.48047C3.18635 2.12267 2.3836 3.16624 2.0625 4.4105" stroke="#909398" stroke-width="0.80301" stroke-miterlimit="10" stroke-linecap="round" stroke-linejoin="round"/>
<path id="Vector_3" d="M7.32508 11.5627H1.46309C1.42294 11.4824 1.42296 11.4824 1.38281 11.362L1.70401 11.0809C2.66762 10.2378 3.22973 8.9931 3.22973 7.70829V6.38332C3.22973 4.13489 5.03649 2.32812 7.28492 2.32812H7.36522H7.44553C9.69396 2.32812 11.5007 4.13489 11.5007 6.38332V7.70829C11.5007 8.9931 12.0628 10.1976 13.0265 11.0809L13.3477 11.362C13.3075 11.4423 13.3075 11.4423 13.2674 11.5627H7.32508Z" stroke="#909398" stroke-width="0.80301" stroke-miterlimit="10" stroke-linecap="round" stroke-linejoin="round"/>
<path id="Vector_4" d="M6.35938 2.24426V1.96329C6.35938 1.44151 6.8009 1 7.32268 1C7.84447 1 8.28596 1.44151 8.28596 1.96329V2.24426" stroke="#909398" stroke-width="0.80301" stroke-miterlimit="10" stroke-linecap="round" stroke-linejoin="round"/>
<path id="Vector_5" d="M5.35938 11.7578C5.84118 12.5608 6.52373 13.0025 7.28659 13.0025C8.04945 13.0025 8.77218 12.5207 9.21384 11.7578" stroke="#909398" stroke-width="0.80301" stroke-miterlimit="10" stroke-linecap="round" stroke-linejoin="round"/>
</g>
</svg>
