<svg width="12" height="17" viewBox="0 0 12 17" fill="none" xmlns="http://www.w3.org/2000/svg">
<path d="M10.9363 13.061H10.046V9.24585C10.046 7.67308 9.20702 6.21997 7.84497 5.43358C6.48296 4.64714 4.80482 4.64714 3.44284 5.43358C2.08083 6.21991 1.24183 7.67314 1.24183 9.24585V13.061H0.351562V16.2797H10.9362L10.9363 13.061ZM2.54599 9.24585C2.54599 8.13915 3.13635 7.1165 4.09486 6.56309C5.05326 6.00968 6.23421 6.00968 7.19266 6.56309C8.15117 7.1165 8.74153 8.13915 8.74153 9.24585V13.061H2.54593L2.54599 9.24585ZM9.63191 14.9753H1.65596V14.3655H9.63191V14.9753Z" fill="#D20229"/>
<path d="M10.9363 13.061H10.046V9.24585C10.046 7.67308 9.20702 6.21997 7.84497 5.43358C6.48296 4.64714 4.80482 4.64714 3.44284 5.43358C2.08083 6.21991 1.24183 7.67314 1.24183 9.24585V13.061H0.351562V16.2797H10.9362L10.9363 13.061ZM2.54599 9.24585C2.54599 8.13915 3.13635 7.1165 4.09486 6.56309C5.05326 6.00968 6.23421 6.00968 7.19266 6.56309C8.15117 7.1165 8.74153 8.13915 8.74153 9.24585V13.061H2.54593L2.54599 9.24585ZM9.63191 14.9753H1.65596V14.3655H9.63191V14.9753Z" stroke="#D20229"/>
<path d="M5.75 7.34065L5.75 10.1562" stroke="#D20229" stroke-width="0.699606" stroke-miterlimit="10" stroke-linecap="round" stroke-linejoin="round"/>
<path d="M5.75 11.7752L5.75 12.2656" stroke="#D20229" stroke-width="0.699606" stroke-miterlimit="10" stroke-linecap="round" stroke-linejoin="round"/>
<path d="M4.99219 0.8125H6.29655V3.85498H4.99219V0.8125Z" fill="#D20229"/>
<path d="M4.99219 0.8125H6.29655V3.85498H4.99219V0.8125Z" stroke="#D20229"/>
<path d="M7.85938 4.36202L10.1267 2.23438L11.0192 3.18549L8.75191 5.31313L7.85938 4.36202Z" fill="#D20229"/>
<path d="M7.85938 4.36202L10.1267 2.23438L11.0192 3.18549L8.75191 5.31313L7.85938 4.36202Z" stroke="#D20229"/>
<path d="M0.265625 3.18573L1.15805 2.23438L3.4257 4.36155L2.53328 5.3129L0.265625 3.18573Z" fill="#D20229"/>
<path d="M0.265625 3.18573L1.15805 2.23438L3.4257 4.36155L2.53328 5.3129L0.265625 3.18573Z" stroke="#D20229"/>
</svg>
