<svg width="13" height="14" viewBox="0 0 13 14" fill="none" xmlns="http://www.w3.org/2000/svg">
<g id="Group 4016">
<g id="Group">
<path id="Vector" d="M6.46924 12.9932C3.14897 12.9932 0.46875 10.3129 0.46875 6.99268C0.46875 3.67241 3.14897 0.992188 6.46924 0.992188C9.78951 0.992188 12.4697 3.67241 12.4697 6.99268C12.4697 10.3129 9.78951 12.9932 6.46924 12.9932Z" stroke="#909398" stroke-width="0.800065" stroke-miterlimit="10" stroke-linecap="round" stroke-linejoin="round"/>
<g id="Group 3814">
<path id="Vector_2" d="M6.51424 10.1965C6.81551 10.1965 7.05973 9.95223 7.05973 9.65096C7.05973 9.34969 6.81551 9.10547 6.51424 9.10547C6.21297 9.10547 5.96875 9.34969 5.96875 9.65096C5.96875 9.95223 6.21297 10.1965 6.51424 10.1965Z" fill="#909398"/>
<path id="Vector_3" d="M6.51901 4.19531C5.5565 4.19531 4.77344 4.97838 4.77344 5.94088C4.77344 6.1819 4.96881 6.37728 5.20983 6.37728C5.45085 6.37728 5.64622 6.1819 5.64622 5.94088C5.64622 5.45963 6.03775 5.0681 6.51901 5.0681C7.00026 5.0681 7.39179 5.45963 7.39179 5.94088C7.39179 6.42214 7.00026 6.81367 6.51901 6.81367C6.27799 6.81367 6.08262 7.00904 6.08262 7.25006V8.34104C6.08262 8.58206 6.27799 8.77744 6.51901 8.77744C6.76003 8.77744 6.9554 8.58206 6.9554 8.34104V7.63123C7.70744 7.43697 8.26458 6.75277 8.26458 5.94088C8.26458 4.97838 7.48152 4.19531 6.51901 4.19531Z" fill="#909398"/>
</g>
</g>
</g>
</svg>
