<svg width="95" height="95" viewBox="0 0 95 95" fill="none" xmlns="http://www.w3.org/2000/svg">
<circle cx="47.6605" cy="47.7347" r="47.2542" fill="#FF5C34"/>
<g clip-path="url(#clip0_5633_150710)">
<path d="M32.4372 64.2679L32.0703 56.2676H33.0905C33.1445 58.5692 33.2965 62.4173 33.2387 63.195H33.25C33.5478 62.308 35.5755 58.2626 36.4964 56.2676H37.4675C37.5504 58.0453 37.7464 62.2653 37.6962 63.1535H37.7075C38.053 62.2213 39.7905 58.6948 40.9048 56.2676H41.9363L37.9901 64.2679H36.8908C36.8167 62.509 36.6396 58.6483 36.6773 57.6232H36.666C36.2325 58.8204 34.392 62.4776 33.5251 64.2679H32.4372Z" fill="white"/>
<path d="M46.3271 60.7301C46.3271 62.2653 45.4565 64.3835 43.2064 64.3835C41.788 64.3835 41.0078 63.484 41.0078 62.0279C41.0078 60.4148 41.9953 58.3154 44.1059 58.3154C45.4401 58.3154 46.3271 59.1735 46.3271 60.7301ZM42.0129 62.0254C42.0129 62.9915 42.4727 63.5681 43.3119 63.5681C44.7014 63.5681 45.3133 61.9085 45.3133 60.6911C45.3133 59.7137 44.8911 59.1308 44.0129 59.1308C42.6724 59.1308 42.0129 60.7854 42.0129 62.0203" fill="white"/>
<path d="M47.5866 60.1585C47.7122 59.5868 47.8278 58.9687 47.9245 58.431H48.8643C48.8141 58.843 48.7432 59.2523 48.652 59.6572C49.0766 58.8381 49.8015 58.3154 50.6985 58.3154L50.4837 59.3268C49.3731 59.4059 48.5389 60.2351 48.2625 61.5417L47.6858 64.2679H46.7109L47.5866 60.1585Z" fill="white"/>
<path d="M50.3828 64.2677L52.1693 55.8252H53.1442L51.3577 64.2677H50.3828Z" fill="white"/>
<path d="M59.3396 55.8252L57.8986 62.6433C57.783 63.1911 57.6636 63.7413 57.5719 64.2677H56.6259C56.6609 63.9605 56.7116 63.6552 56.7779 63.3531C56.391 63.965 55.8168 64.3833 54.8532 64.3833C53.5969 64.3833 52.9688 63.4423 52.9688 62.1094C52.9688 60.392 53.9914 58.3152 56.0254 58.3152C57.0078 58.3152 57.5242 58.8379 57.6473 59.2097L58.3647 55.8252H59.3396ZM53.9876 62.0151C53.9876 63.039 54.4361 63.5227 55.1987 63.5227C56.3985 63.5227 57.0204 62.4435 57.2754 61.1508C57.5267 59.9397 57.1586 59.1683 56.0468 59.1683C54.6949 59.1683 53.9876 60.74 53.9876 62.0114" fill="white"/>
<path d="M54.1005 38.7553C52.9409 37.5894 51.2687 36.9688 49.2636 36.96H49.2209C46.6731 36.96 44.5122 37.8947 42.9682 39.6636C41.5862 41.2528 40.8136 43.376 40.8048 45.645C40.7972 47.5106 41.3814 49.0898 42.4958 50.2105C43.634 51.3537 45.2999 51.9605 47.3113 51.9618H47.3326C50.0375 51.9618 52.2725 51.0045 53.799 49.1916C55.0754 47.6752 55.8091 45.5671 55.8229 43.4125C55.8305 41.5104 55.235 39.901 54.1005 38.764V38.7553ZM50.8918 47.1513C50.1066 48.3574 48.9772 48.9943 47.6254 48.9943H47.6078C46.6856 48.9943 45.9256 48.6702 45.4105 48.0697C44.8954 47.4692 44.629 46.601 44.6328 45.557C44.6328 44.1487 45.0499 42.7454 45.7635 41.7076C46.3213 40.8935 47.3239 39.9236 48.9307 39.9236H48.947C50.8969 39.9324 51.9622 41.1247 51.9622 43.2818C51.9559 44.7178 51.5702 46.1299 50.9031 47.1551" fill="white"/>
<path d="M34.5104 37.0303H34.474C32.1887 37.0303 30.906 37.8607 30.0567 38.7125L29.171 42.7252C29.95 41.0581 31.2792 40.1334 32.9777 40.1334H32.9966C33.9627 40.1334 34.6964 40.4299 35.1763 41.004C35.6235 41.5392 35.8484 42.3106 35.8447 43.2968C35.8384 44.7127 35.4288 46.116 34.714 47.1475C34.1486 47.9691 33.1234 48.9478 31.4475 48.9478H31.4299C30.3846 48.9478 29.5994 48.6274 29.0957 48.0093C28.6823 47.5068 28.4675 46.7957 28.4612 45.9301L27.5391 50.1112C28.0127 50.9403 29.1158 52.0195 31.6498 52.0296H31.6875C34.1775 52.0296 36.2705 51.0471 37.743 49.189C39.0546 47.5319 39.782 45.2869 39.792 42.8697C39.8059 39.3909 37.6839 37.0441 34.5155 37.0303" fill="white"/>
<path d="M31.0529 31.0879H25.2323L24.5401 34.3028H26.6306L22.8516 51.6465L26.5125 51.6615L31.0529 31.0879Z" fill="white"/>
<path d="M67.1942 37.0303H67.1552C64.87 37.0303 63.586 37.8607 62.738 38.7125L61.8585 42.7252C62.6375 41.0581 63.9667 40.1334 65.6652 40.1334H65.6841C66.6502 40.1334 67.3839 40.4299 67.8638 41.004C68.311 41.5392 68.5359 42.3106 68.5322 43.2968C68.5322 44.7127 68.1163 46.116 67.4015 47.1475C66.8361 47.9691 65.8109 48.9478 64.135 48.9478H64.1187C63.0734 48.9478 62.2882 48.6274 61.7844 48.0093C61.3711 47.5068 61.1562 46.7957 61.15 45.9301L60.2266 50.1112C60.7002 50.9403 61.8033 52.0195 64.3373 52.0296H64.375C66.865 52.0296 68.9581 51.0471 70.4292 49.189C71.7421 47.5319 72.4695 45.2869 72.4795 42.8697C72.4934 39.3909 70.3714 37.0441 67.203 37.0303" fill="white"/>
<path d="M63.7313 31.0879H57.912L57.2198 34.3028H59.3103L55.5312 51.6465L59.1922 51.6615L63.7313 31.0879Z" fill="white"/>
</g>
<defs>
<clipPath id="clip0_5633_150710">
<rect width="49.625" height="33.294" fill="white" transform="translate(22.8516 31.0879)"/>
</clipPath>
</defs>
</svg>
