<svg width="38" height="38" viewBox="0 0 38 38" fill="none" xmlns="http://www.w3.org/2000/svg">
<rect x="1.07027" y="1.16012" width="36.3477" height="36.3477" rx="18.1739" fill="white" stroke="#F0F0F0" stroke-width="0.773356"/>
<path d="M22.7474 21.0577L22.7474 20.671L22.7474 21.0577C23.1947 21.0577 23.5614 20.6911 23.5614 20.2437L23.5614 15.35C23.5614 14.9027 23.1947 14.5361 22.7474 14.5361L17.8537 14.5361C17.6248 14.5361 17.4231 14.6291 17.278 14.7743C17.14 14.9123 17.0337 15.1182 17.0398 15.3566C17.0433 15.801 17.4085 16.164 17.8537 16.164L21.9334 16.164L21.9334 20.2437C21.9334 20.6911 22.3 21.0577 22.7474 21.0577Z" fill="#D20229" stroke="#D20229" stroke-width="0.773356"/>
<path d="M22.1165 14.8461L15.3322 21.6304C15.0159 21.9466 15.0159 22.4656 15.3322 22.7819C15.6485 23.0982 16.1674 23.0982 16.4837 22.7819L23.268 15.9976C23.5842 15.6813 23.5842 15.1624 23.268 14.8461C22.9517 14.5298 22.4327 14.5298 22.1165 14.8461Z" fill="#D20229" stroke="#D20229" stroke-width="0.773356"/>
</svg>
