<svg width="38" height="38" viewBox="0 0 38 38" fill="none" xmlns="http://www.w3.org/2000/svg">
<rect x="1.07027" y="0.581991" width="36.3477" height="36.3477" rx="18.1739" fill="white" stroke="#F0F0F0" stroke-width="0.773356"/>
<path d="M16.1432 16.2099L16.1432 16.5966L16.1432 16.2099C15.6959 16.2099 15.3293 16.5765 15.3293 17.0239L15.3293 21.9175C15.3293 22.3649 15.6959 22.7315 16.1432 22.7315L21.0369 22.7315C21.2658 22.7315 21.4675 22.6385 21.6127 22.4933C21.7506 22.3553 21.857 22.1494 21.8509 21.911C21.8473 21.4666 21.4821 21.1036 21.0369 21.1036L16.9572 21.1036L16.9572 17.0239C16.9572 16.5765 16.5906 16.2099 16.1432 16.2099Z" fill="#65BC50" stroke="#65BC50" stroke-width="0.773356"/>
<path d="M16.7742 22.4215L23.5584 15.6372C23.8747 15.3209 23.8747 14.802 23.5584 14.4857C23.2421 14.1694 22.7232 14.1694 22.4069 14.4857L15.6227 21.27C15.3064 21.5862 15.3064 22.1052 15.6227 22.4215C15.9389 22.7377 16.4579 22.7377 16.7742 22.4215Z" fill="#65BC50" stroke="#65BC50" stroke-width="0.773356"/>
</svg>
