<svg xmlns="http://www.w3.org/2000/svg" width="25" height="25" viewBox="0 0 25 25" fill="none">
  <rect x="0.90625" y="0.585938" width="24" height="24" fill="white"/>
  <path d="M13.6406 19.0398H15.7528H17.8651C21.344 19.0398 23.4562 15.126 21.4683 12.2683L18.2999 7.54688" stroke="black" stroke-opacity="0.6" stroke-width="1.2" stroke-miterlimit="10" stroke-linecap="round" stroke-linejoin="round"/>
  <path d="M9.47656 13.1998C9.60081 12.8892 9.72506 12.5164 9.97356 12.2058L13.0798 7.48438" stroke="black" stroke-opacity="0.6" stroke-width="1.2" stroke-miterlimit="10" stroke-linecap="round" stroke-linejoin="round"/>
  <path d="M12.5769 6.55237L11.9556 4.68864C11.7692 4.0674 12.3905 3.57041 12.9496 3.8189L13.633 4.12952C13.8193 4.19165 14.0678 4.19165 14.2542 4.12952L15.4346 3.63253C15.6209 3.57041 15.8073 3.57041 15.9937 3.63253L17.174 4.12952C17.3604 4.19165 17.6089 4.19165 17.7953 4.12952L18.4786 3.8189C19.0378 3.57041 19.659 4.12952 19.4726 4.68864L18.8514 6.55237" stroke="black" stroke-opacity="0.6" stroke-width="1.2" stroke-miterlimit="10" stroke-linecap="round" stroke-linejoin="round"/>
  <path d="M11.2812 7.17188H20.165" stroke="black" stroke-opacity="0.6" stroke-width="1.2" stroke-miterlimit="10" stroke-linecap="round" stroke-linejoin="round"/>
  <path d="M13.5781 10.3359H17.8647" stroke="black" stroke-opacity="0.6" stroke-width="1.2" stroke-miterlimit="10" stroke-linecap="round" stroke-linejoin="round"/>
  <path d="M13.5781 12.5781H17.8647" stroke="black" stroke-opacity="0.6" stroke-width="1.2" stroke-miterlimit="10" stroke-linecap="round" stroke-linejoin="round"/>
  <path d="M13.5781 10.3359H14.9449C16.1873 10.3359 17.2434 11.3299 17.2434 12.6345C17.2434 13.877 16.2495 14.9331 14.9449 14.9331H13.5781L17.2434 17.0453" stroke="black" stroke-opacity="0.6" stroke-width="1.2" stroke-miterlimit="10" stroke-linecap="round" stroke-linejoin="round"/>
  <path d="M9.29355 16.6181L11.4058 18.7303C11.9028 19.2273 12.7725 19.2273 13.2695 18.7303C13.7665 18.2333 13.7665 17.3636 13.2695 16.8666L10.039 13.6361C9.54204 13.1391 8.85868 12.8906 8.17531 12.8906H3.57812V17.4257H5.25548C5.5661 17.4257 5.81459 17.5499 6.00097 17.7363L9.35567 21.091C9.66629 21.4016 10.039 21.588 10.4739 21.588H20.3516C21.035 21.588 21.5941 21.0289 21.5941 20.3455C21.5941 19.6622 21.035 19.103 20.3516 19.103L12.7725 19.1652" stroke="black" stroke-opacity="0.6" stroke-width="1.2" stroke-miterlimit="10" stroke-linecap="round" stroke-linejoin="round"/>
</svg>