<svg xmlns="http://www.w3.org/2000/svg" width="25" height="25" viewBox="0 0 25 25" fill="none">
  <rect x="0.90625" y="0.585938" width="24" height="24" fill="white"/>
  <path d="M14.5832 18.579L14.4632 17.2588C14.2832 15.6386 15.4833 14.1985 17.0435 14.0785L19.2638 13.8984L19.0838 16.1187C18.9637 17.7389 17.5236 18.879 15.9034 18.699L14.5832 18.579Z" stroke="black" stroke-opacity="0.6" stroke-width="1.20014" stroke-miterlimit="10" stroke-linecap="round" stroke-linejoin="round"/>
  <path d="M17.1049 16.0625L12.4844 20.743" stroke="black" stroke-opacity="0.6" stroke-width="1.20014" stroke-miterlimit="10" stroke-linecap="round" stroke-linejoin="round"/>
  <path d="M10.3837 17.3837L10.5037 16.0635C10.6837 14.4433 9.48356 13.0032 7.92338 12.8831L5.70312 12.7031L5.88315 14.9234C6.00316 16.5436 7.44333 17.6837 9.06352 17.5037L10.3837 17.3837Z" stroke="black" stroke-opacity="0.6" stroke-width="1.20014" stroke-miterlimit="10" stroke-linecap="round" stroke-linejoin="round"/>
  <path d="M7.85938 14.8594L12.2398 19.2398" stroke="black" stroke-opacity="0.6" stroke-width="1.20014" stroke-miterlimit="10" stroke-linecap="round" stroke-linejoin="round"/>
  <path d="M12.4219 12.5781V21.5792" stroke="black" stroke-opacity="0.6" stroke-width="1.20014" stroke-miterlimit="10" stroke-linecap="round" stroke-linejoin="round"/>
  <path d="M9.24219 21.5781H15.5429" stroke="black" stroke-opacity="0.6" stroke-width="1.20014" stroke-miterlimit="10" stroke-linecap="round" stroke-linejoin="round"/>
  <path d="M10.6875 5.67188H14.1079" stroke="black" stroke-opacity="0.6" stroke-width="1.20014" stroke-miterlimit="10" stroke-linecap="round" stroke-linejoin="round"/>
  <path d="M10.6875 7.46875H14.1079" stroke="black" stroke-opacity="0.6" stroke-width="1.20014" stroke-miterlimit="10" stroke-linecap="round" stroke-linejoin="round"/>
  <path d="M10.6875 5.67188H11.7676C12.7877 5.67188 13.5678 6.51197 13.5678 7.47208C13.5678 8.4922 12.7277 9.27229 11.7676 9.27229H10.6875L13.6278 10.9525" stroke="black" stroke-opacity="0.6" stroke-width="1.20014" stroke-miterlimit="10" stroke-linecap="round" stroke-linejoin="round"/>
  <path d="M12.4224 3.57812C14.8827 3.57812 16.9229 5.61836 16.9229 8.07865C16.9229 10.5389 14.8827 12.5792 12.4224 12.5792C9.90211 12.5792 7.92188 10.5389 7.92188 8.07865C7.92188 5.61836 9.90211 3.57812 12.4224 3.57812Z" stroke="black" stroke-opacity="0.6" stroke-width="1.20014" stroke-miterlimit="10" stroke-linecap="round" stroke-linejoin="round"/>
</svg>