<svg width="20" height="21" viewBox="0 0 20 21" fill="none" xmlns="http://www.w3.org/2000/svg">
<path d="M1.10938 1.58594H2.67561C3.64775 1.58594 4.41286 2.42306 4.33185 3.3862L3.58474 12.3515C3.45872 13.8187 4.61989 15.0789 6.0961 15.0789H15.6825C16.9787 15.0789 18.1129 14.0168 18.2119 12.7296L18.698 5.97859C18.806 4.48437 17.6718 3.26918 16.1686 3.26918H4.54789" stroke="black" stroke-opacity="0.6" stroke-width="1.2" stroke-miterlimit="10" stroke-linecap="round" stroke-linejoin="round"/>
<path d="M13.9374 19.5858C14.5587 19.5858 15.0623 19.0821 15.0623 18.4609C15.0623 17.8396 14.5587 17.3359 13.9374 17.3359C13.3161 17.3359 12.8125 17.8396 12.8125 18.4609C12.8125 19.0821 13.3161 19.5858 13.9374 19.5858Z" stroke="black" stroke-opacity="0.6" stroke-width="1.2" stroke-miterlimit="10" stroke-linecap="round" stroke-linejoin="round"/>
<path d="M6.73429 19.5858C7.35556 19.5858 7.85921 19.0821 7.85921 18.4609C7.85921 17.8396 7.35556 17.3359 6.73429 17.3359C6.11302 17.3359 5.60938 17.8396 5.60938 18.4609C5.60938 19.0821 6.11302 19.5858 6.73429 19.5858Z" stroke="black" stroke-opacity="0.6" stroke-width="1.2" stroke-miterlimit="10" stroke-linecap="round" stroke-linejoin="round"/>
<path d="M7.40625 6.98438H17.4199" stroke="black" stroke-opacity="0.6" stroke-width="1.2" stroke-miterlimit="10" stroke-linecap="round" stroke-linejoin="round"/>
</svg>
