<svg width="25" height="25" viewBox="0 0 25 25" fill="none" xmlns="http://www.w3.org/2000/svg">
<rect x="0.90625" y="0.53125" width="24" height="24" fill="white"/>
<path d="M11.2266 10.25H14.5866" stroke="black" stroke-opacity="0.6" stroke-width="1.2" stroke-miterlimit="10" stroke-linecap="round" stroke-linejoin="round"/>
<path d="M11.2266 12.0469H14.5866" stroke="black" stroke-opacity="0.6" stroke-width="1.2" stroke-miterlimit="10" stroke-linecap="round" stroke-linejoin="round"/>
<path d="M11.2266 10.25H12.3066C13.2666 10.25 14.0466 11.03 14.0466 11.99C14.0466 12.95 13.2666 13.73 12.3066 13.73H11.2266L14.0466 15.41" stroke="black" stroke-opacity="0.6" stroke-width="1.2" stroke-miterlimit="10" stroke-linecap="round" stroke-linejoin="round"/>
<path d="M14.2838 4.49125H18.9638V3.53125L20.9437 5.51125L18.9638 7.43125V6.47125H12.9038C9.54377 6.47125 6.84375 9.17125 6.84375 12.5313V15.4713" stroke="black" stroke-opacity="0.6" stroke-width="1.2" stroke-miterlimit="10" stroke-linecap="round" stroke-linejoin="round"/>
<path d="M12.9072 18.585H6.78719V17.625L4.86719 19.545L6.78719 21.525V20.565H11.2272" stroke="black" stroke-opacity="0.6" stroke-width="1.2" stroke-miterlimit="10" stroke-linecap="round" stroke-linejoin="round"/>
<path d="M18.9662 9.59375V12.5337C18.9662 15.8937 16.2662 18.5938 12.9062 18.5938" stroke="black" stroke-opacity="0.6" stroke-width="1.2" stroke-miterlimit="10" stroke-linecap="round" stroke-linejoin="round"/>
</svg>
