<svg xmlns="http://www.w3.org/2000/svg" width="25" height="25" viewBox="0 0 25 25" fill="none">
<rect x="0.90625" y="0.585938" width="24" height="24" fill="white"/>
<path d="M18.5426 17.205V14.2656H16.2031V17.205H14.5234L17.3428 20.0244L20.2222 17.205H18.5426Z" stroke="black" stroke-opacity="0.6" stroke-width="1.2" stroke-miterlimit="10" stroke-linecap="round" stroke-linejoin="round"/>
<path d="M20.5226 21.582H5.28595C4.50612 21.582 3.90625 20.9822 3.90625 20.2023V4.96564C3.90625 4.18581 4.50612 3.58594 5.28595 3.58594H20.5226C21.3025 3.58594 21.9023 4.18581 21.9023 4.96564V20.2023C21.9023 20.9822 21.3025 21.582 20.5226 21.582Z" stroke="black" stroke-opacity="0.6" stroke-width="1.2" stroke-miterlimit="10" stroke-linecap="round" stroke-linejoin="round"/>
<path d="M12.9062 5.07812L12.9063 20.168" stroke="black" stroke-opacity="0.6" stroke-width="1.2" stroke-miterlimit="10" stroke-linecap="round" stroke-linejoin="round"/>
<path d="M20.417 12.5859L5.35938 12.5859" stroke="black" stroke-opacity="0.6" stroke-width="1.2" stroke-miterlimit="10" stroke-linecap="round" stroke-linejoin="round"/>
<path d="M8.28906 6.28906V9.70758" stroke="black" stroke-opacity="0.6" stroke-width="1.2" stroke-miterlimit="10" stroke-linecap="round" stroke-linejoin="round"/>
<path d="M10.0279 8.03125H6.60938" stroke="black" stroke-opacity="0.6" stroke-width="1.2" stroke-miterlimit="10" stroke-linecap="round" stroke-linejoin="round"/>
<path d="M19.1998 8.02344H15.7812" stroke="black" stroke-opacity="0.6" stroke-width="1.2" stroke-miterlimit="10" stroke-linecap="round" stroke-linejoin="round"/>
<path d="M9.54487 15.9531L7.08594 18.4121" stroke="black" stroke-opacity="0.6" stroke-width="1.2" stroke-miterlimit="10" stroke-linecap="round" stroke-linejoin="round"/>
<path d="M9.54487 18.4121L7.08594 15.9531" stroke="black" stroke-opacity="0.6" stroke-width="1.2" stroke-miterlimit="10" stroke-linecap="round" stroke-linejoin="round"/>
</svg>
