<svg width="25" height="25" viewBox="0 0 25 25" fill="none" xmlns="http://www.w3.org/2000/svg">
<rect x="0.90625" y="0.53125" width="24" height="24" fill="white"/>
<path d="M8.03125 12.7424V4.79553C8.03125 4.07308 8.57307 3.53125 9.29552 3.53125C10.018 3.53125 10.5598 4.07308 10.5598 4.79553V12.1404" stroke="black" stroke-opacity="0.6" stroke-width="1.20408" stroke-miterlimit="10" stroke-linecap="round" stroke-linejoin="round"/>
<path d="M10.5625 12.4413V8.88928C10.5625 8.16683 11.1043 7.625 11.8268 7.625C12.5492 7.625 13.091 8.16683 13.091 8.88928V12.4413" stroke="black" stroke-opacity="0.6" stroke-width="1.20408" stroke-miterlimit="10" stroke-linecap="round" stroke-linejoin="round"/>
<path d="M13.0859 12.439V9.85022C13.0859 9.12777 13.6278 8.58594 14.3502 8.58594C15.0726 8.58594 15.6145 9.12777 15.6145 9.85022V12.439" stroke="black" stroke-opacity="0.6" stroke-width="1.20408" stroke-miterlimit="10" stroke-linecap="round" stroke-linejoin="round"/>
<path d="M8.02815 12.7432L6.46283 10.1544C6.22201 9.733 5.74038 9.49219 5.25875 9.49219C5.01794 9.49219 4.77715 9.55239 4.53633 9.6728C3.9945 10.034 3.75368 10.6963 3.9343 11.2983L5.55977 15.633L6.22203 17.4993C6.64346 18.7034 7.42612 19.7268 8.44958 20.4493C9.47305 21.1717 10.6771 21.5329 11.9414 21.5329C13.4465 21.5329 14.7709 20.9911 15.8546 20.1483" stroke="black" stroke-opacity="0.6" stroke-width="1.20408" stroke-miterlimit="10" stroke-linecap="round" stroke-linejoin="round"/>
<path d="M15.6094 12.4422V10.8167C15.6094 10.1544 16.0909 9.55239 16.7532 9.49219C17.1144 9.49219 17.4757 9.6126 17.7165 9.85341C17.9573 10.0942 18.0777 10.3952 18.0777 10.7565V14.6697" stroke="black" stroke-opacity="0.6" stroke-width="1.20408" stroke-miterlimit="10" stroke-linecap="round" stroke-linejoin="round"/>
<path d="M20.9684 19.4854C21.0888 19.2446 21.2092 18.9436 21.2694 18.7028H21.9317V17.0773H21.2694C21.149 16.5354 20.8481 15.9936 20.4266 15.5722L20.7878 14.9701L19.4031 14.1875L19.0419 14.7895C18.4399 14.6089 17.898 14.6089 17.296 14.7895L16.9348 14.1875L15.5501 14.9701L15.9113 15.5722C15.7307 15.7528 15.5501 15.9936 15.3695 16.2344C15.2491 16.4752 15.1287 16.7763 15.0685 17.0171H14.4062V18.6426H15.0685C15.1889 19.1844 15.4899 19.7263 15.9113 20.1477L15.5501 20.7497L16.9348 21.5324L17.296 20.9303C17.898 21.1109 18.4399 21.1109 19.0419 20.9303L19.4031 21.5324L20.7878 20.7497L20.4266 20.1477C20.6072 19.9671 20.7878 19.7865 20.9684 19.4854Z" stroke="black" stroke-opacity="0.6" stroke-width="1.20408" stroke-miterlimit="10" stroke-linecap="round" stroke-linejoin="round"/>
<path d="M18.0791 19.0644C18.7441 19.0644 19.2832 18.5253 19.2832 17.8603C19.2832 17.1953 18.7441 16.6562 18.0791 16.6562C17.4141 16.6562 16.875 17.1953 16.875 17.8603C16.875 18.5253 17.4141 19.0644 18.0791 19.0644Z" stroke="black" stroke-opacity="0.6" stroke-width="1.20408" stroke-miterlimit="10" stroke-linecap="round" stroke-linejoin="round"/>
</svg>
