<svg width="25" height="25" viewBox="0 0 25 25" fill="none" xmlns="http://www.w3.org/2000/svg">
<rect x="0.90625" y="0.53125" width="24" height="24" fill="white"/>
<path d="M6.21875 3.53125H18.2585C19.1012 3.53125 19.8236 4.25363 19.8236 5.09641V14.4874" stroke="black" stroke-opacity="0.6" stroke-width="1.20397" stroke-miterlimit="10" stroke-linecap="round" stroke-linejoin="round"/>
<path d="M15.0117 19.6645H8.57049C8.2093 19.6645 7.9685 19.3635 7.9685 19.0625V8.64813V5.578C7.9685 5.03621 7.72771 4.49443 7.36652 4.13324C7.00533 3.77204 6.46354 3.53125 5.92175 3.53125C4.77798 3.53125 3.875 4.43423 3.875 5.578V8.04614C3.875 8.40733 4.17599 8.64813 4.47699 8.64813H7.9083" stroke="black" stroke-opacity="0.6" stroke-width="1.20397" stroke-miterlimit="10" stroke-linecap="round" stroke-linejoin="round"/>
<path d="M18.5016 21.5345C20.3967 21.5345 21.9329 19.9983 21.9329 18.1032C21.9329 16.2081 20.3967 14.6719 18.5016 14.6719C16.6066 14.6719 15.0703 16.2081 15.0703 18.1032C15.0703 19.9983 16.6066 21.5345 18.5016 21.5345Z" stroke="black" stroke-opacity="0.6" stroke-width="1.20397" stroke-miterlimit="10" stroke-linecap="round" stroke-linejoin="round"/>
<path d="M16.9375 18.6459L17.7203 19.4889L20.0685 17.1406" stroke="black" stroke-opacity="0.6" stroke-width="1.20397" stroke-miterlimit="10" stroke-linecap="round" stroke-linejoin="round"/>
<path d="M10.2578 6.65625H12.0638" stroke="black" stroke-opacity="0.6" stroke-width="1.20397" stroke-miterlimit="10" stroke-linecap="round" stroke-linejoin="round"/>
<path d="M10.2578 9.92188H12.425" stroke="black" stroke-opacity="0.6" stroke-width="1.20397" stroke-miterlimit="10" stroke-linecap="round" stroke-linejoin="round"/>
<path d="M10.2578 13.1016H15.0135" stroke="black" stroke-opacity="0.6" stroke-width="1.20397" stroke-miterlimit="10" stroke-linecap="round" stroke-linejoin="round"/>
<path d="M10.2578 16.2969H13.0275" stroke="black" stroke-opacity="0.6" stroke-width="1.20397" stroke-miterlimit="10" stroke-linecap="round" stroke-linejoin="round"/>
<path d="M14.2891 6.17969H15.493C16.5164 6.17969 17.299 6.96227 17.299 7.98564C17.299 9.00902 16.5164 9.7916 15.493 9.7916H14.2891L17.2388 11.5374" stroke="black" stroke-opacity="0.6" stroke-width="1.20397" stroke-miterlimit="10" stroke-linecap="round" stroke-linejoin="round"/>
<path d="M14.2891 6.17969H17.7813" stroke="black" stroke-opacity="0.6" stroke-width="1.20397" stroke-miterlimit="10" stroke-linecap="round" stroke-linejoin="round"/>
<path d="M14.2891 7.98438H17.7813" stroke="black" stroke-opacity="0.6" stroke-width="1.20397" stroke-miterlimit="10" stroke-linecap="round" stroke-linejoin="round"/>
</svg>
