<svg width="25" height="25" viewBox="0 0 25 25" fill="none" xmlns="http://www.w3.org/2000/svg">
<rect x="0.90625" y="0.460938" width="24" height="24" fill="white"/>
<path d="M22.6164 3.46094H17.3906" stroke="black" stroke-opacity="0.6" stroke-width="1.5" stroke-miterlimit="10" stroke-linecap="round" stroke-linejoin="round"/>
<path d="M22.6164 6.5H17.3906" stroke="black" stroke-opacity="0.6" stroke-width="1.5" stroke-miterlimit="10" stroke-linecap="round" stroke-linejoin="round"/>
<path d="M22.6164 9.58594H17.3906" stroke="black" stroke-opacity="0.6" stroke-width="1.5" stroke-miterlimit="10" stroke-linecap="round" stroke-linejoin="round"/>
<path d="M10.998 11.9099C13.1714 11.9099 14.9334 10.148 14.9334 7.9745C14.9334 5.80102 13.1714 4.03906 10.998 4.03906C8.82448 4.03906 7.0625 5.80102 7.0625 7.9745C7.0625 10.148 8.82448 11.9099 10.998 11.9099Z" stroke="black" stroke-opacity="0.6" stroke-width="1.5" stroke-miterlimit="10" stroke-linecap="round" stroke-linejoin="round"/>
<path d="M16.2919 13.8495C14.8726 12.6882 13.0662 11.9141 11.0017 11.9141C6.8082 11.9141 3.38886 15.0108 3.19531 18.9462H13.9694" stroke="black" stroke-opacity="0.6" stroke-width="1.5" stroke-miterlimit="10" stroke-linecap="round" stroke-linejoin="round"/>
<path d="M17.8377 21.4566C19.9399 21.4566 21.6441 19.7524 21.6441 17.6502C21.6441 15.5479 19.9399 13.8438 17.8377 13.8438C15.7355 13.8438 14.0312 15.5479 14.0312 17.6502C14.0312 19.7524 15.7355 21.4566 17.8377 21.4566Z" stroke="black" stroke-opacity="0.6" stroke-width="1.5" stroke-miterlimit="10" stroke-linecap="round" stroke-linejoin="round"/>
<path d="M19.5836 16.5L17.003 19.0806L15.9062 17.9839" stroke="black" stroke-opacity="0.6" stroke-width="1.5" stroke-miterlimit="10" stroke-linecap="round" stroke-linejoin="round"/>
</svg>
