<svg width="25" height="25" viewBox="0 0 25 25" fill="none" xmlns="http://www.w3.org/2000/svg">
<rect x="0.90625" y="0.53125" width="24" height="24" fill="white"/>
<path d="M20.0106 20.6867V7.02253L16.6999 3.53125H6.52707C6.1057 3.53125 5.80469 3.89242 5.80469 4.25358V20.8071C5.80469 21.2284 6.1659 21.5294 6.52707 21.5294H19.1679C19.6495 21.5896 20.0106 21.1682 20.0106 20.6867Z" stroke="black" stroke-opacity="0.6" stroke-width="1.2" stroke-miterlimit="10" stroke-linecap="round" stroke-linejoin="round"/>
<path d="M16.7031 3.53125V6.3002C16.7031 6.72156 17.0643 7.02253 17.4255 7.02253H20.0138" stroke="black" stroke-opacity="0.6" stroke-width="1.2" stroke-miterlimit="10" stroke-linecap="round" stroke-linejoin="round"/>
<path d="M8.45312 6.84375H14.292" stroke="black" stroke-opacity="0.6" stroke-width="1.2" stroke-miterlimit="10" stroke-linecap="round" stroke-linejoin="round"/>
<path d="M10.6229 13.5271C11.5537 13.5271 12.3084 12.7725 12.3084 11.8417C12.3084 10.9108 11.5537 10.1562 10.6229 10.1562C9.69206 10.1562 8.9375 10.9108 8.9375 11.8417C8.9375 12.7725 9.69206 13.5271 10.6229 13.5271Z" stroke="black" stroke-opacity="0.6" stroke-width="1.2" stroke-miterlimit="10" stroke-linecap="round" stroke-linejoin="round"/>
<path d="M15.201 18.16C16.1319 18.16 16.8865 17.4054 16.8865 16.4745C16.8865 15.5437 16.1319 14.7891 15.201 14.7891C14.2702 14.7891 13.5156 15.5437 13.5156 16.4745C13.5156 17.4054 14.2702 18.16 15.201 18.16Z" stroke="black" stroke-opacity="0.6" stroke-width="1.2" stroke-miterlimit="10" stroke-linecap="round" stroke-linejoin="round"/>
<path d="M16.3466 10.6953L9.48438 17.5575" stroke="black" stroke-opacity="0.6" stroke-width="1.2" stroke-miterlimit="10" stroke-linecap="round" stroke-linejoin="round"/>
</svg>
