<svg width="20" height="20" viewBox="0 0 20 20" fill="none" xmlns="http://www.w3.org/2000/svg">
<mask id="path-1-inside-1_1604_139328" fill="white">
<path d="M6.48277 11.6526L9.30943 14.4793C9.68276 14.8526 10.3228 14.8526 10.7494 14.4793L13.5761 11.6526L14.2695 10.9593C15.2295 9.99927 15.2828 8.39927 14.3761 7.38594C13.8961 6.8526 13.2028 6.58594 12.5628 6.58594C11.9228 6.58594 11.2828 6.8526 10.8028 7.3326L10.3228 7.8126C10.1628 7.9726 9.94943 7.9726 9.84276 7.8126L9.36278 7.3326C8.88278 6.8526 8.24279 6.58594 7.60279 6.58594C6.96279 6.58594 6.26944 6.8526 5.78944 7.38594C4.82944 8.39927 4.88278 9.94594 5.89612 10.9593L6.48277 11.6526L9.30943 14.4793C9.68276 14.8526 10.3228 14.8526 10.7494 14.4793L13.5761 11.6526"/>
</mask>
<path d="M6.48277 11.6526L5.185 12.7507L5.23068 12.8047L5.28069 12.8547L6.48277 11.6526ZM9.30943 14.4793L8.10735 15.6814L8.10735 15.6814L9.30943 14.4793ZM10.7494 14.4793L11.8689 15.7587L11.9115 15.7214L11.9515 15.6814L10.7494 14.4793ZM13.5761 11.6526L12.374 10.4505L12.374 10.4505L13.5761 11.6526ZM14.2695 10.9593L15.4715 12.1614L15.4715 12.1614L14.2695 10.9593ZM14.3761 7.38594L15.643 6.25238L15.6397 6.2487L14.3761 7.38594ZM10.8028 7.3326L12.0049 8.5347L12.0049 8.53469L10.8028 7.3326ZM10.3228 7.8126L9.12071 6.61051L9.12069 6.61052L10.3228 7.8126ZM9.84276 7.8126L11.2572 6.86961L11.1639 6.72957L11.0449 6.61055L9.84276 7.8126ZM9.36278 7.3326L10.5649 6.13055L10.5649 6.13052L9.36278 7.3326ZM5.78944 7.38594L7.02356 8.5551L7.03851 8.53933L7.05304 8.52318L5.78944 7.38594ZM5.89612 10.9593L7.19388 9.86118L7.1482 9.8072L7.0982 9.75719L5.89612 10.9593ZM9.30943 14.4793L8.10735 15.6814L8.10735 15.6814L9.30943 14.4793ZM10.7494 14.4793L11.8689 15.7587L11.9115 15.7214L11.9515 15.6814L10.7494 14.4793ZM5.28069 12.8547L8.10735 15.6814L10.5115 13.2772L7.68485 10.4505L5.28069 12.8547ZM8.10735 15.6814C9.18527 16.7593 10.8478 16.6521 11.8689 15.7587L9.62998 13.1999C9.73429 13.1086 9.86808 13.0593 10.0094 13.0593C10.1515 13.0593 10.3464 13.1121 10.5115 13.2772L8.10735 15.6814ZM11.9515 15.6814L14.7782 12.8547L12.374 10.4505L9.54735 13.2772L11.9515 15.6814ZM14.7782 12.8547L15.4715 12.1614L13.0674 9.75717L12.374 10.4505L14.7782 12.8547ZM15.4715 12.1614C17.0625 10.5703 17.1578 7.94544 15.643 6.25239L13.1092 8.51949C13.4077 8.8531 13.3964 9.42819 13.0674 9.75719L15.4715 12.1614ZM15.6397 6.2487C14.8102 5.32699 13.6426 4.88594 12.5628 4.88594V8.28594C12.763 8.28594 12.982 8.37822 13.1125 8.52318L15.6397 6.2487ZM12.5628 4.88594C11.4553 4.88594 10.3876 5.34364 9.60071 6.13052L12.0049 8.53469C12.178 8.36157 12.3902 8.28594 12.5628 8.28594V4.88594ZM9.60072 6.13051L9.12071 6.61051L11.5248 9.0147L12.0049 8.5347L9.60072 6.13051ZM9.12069 6.61052C9.30093 6.43029 9.62199 6.2326 10.0628 6.2326C10.5408 6.2326 10.9932 6.47357 11.2572 6.86961L8.42828 8.75559C8.79897 9.31164 9.41144 9.6326 10.0628 9.6326C10.6769 9.6326 11.1846 9.35492 11.5249 9.01469L9.12069 6.61052ZM11.0449 6.61055L10.5649 6.13055L8.16068 8.53466L8.64066 9.01466L11.0449 6.61055ZM10.5649 6.13052C9.77798 5.34364 8.71025 4.88594 7.60279 4.88594V8.28594C7.77533 8.28594 7.98759 8.36157 8.1607 8.53469L10.5649 6.13052ZM7.60279 4.88594C6.52301 4.88594 5.35539 5.32698 4.52584 6.2487L7.05304 8.52318C7.18349 8.37823 7.40257 8.28594 7.60279 8.28594V4.88594ZM4.55532 6.21677C2.92369 7.93905 3.06948 10.5368 4.69403 12.1614L7.0982 9.75719C6.69609 9.35508 6.73519 8.85949 7.02356 8.5551L4.55532 6.21677ZM4.59835 12.0574L5.185 12.7507L7.78054 10.5545L7.19388 9.86118L4.59835 12.0574ZM5.28069 12.8547L8.10735 15.6814L10.5115 13.2772L7.68485 10.4505L5.28069 12.8547ZM8.10735 15.6814C9.18527 16.7593 10.8478 16.6521 11.8689 15.7587L9.62998 13.1999C9.73429 13.1086 9.86808 13.0593 10.0094 13.0593C10.1515 13.0593 10.3464 13.1121 10.5115 13.2772L8.10735 15.6814ZM11.9515 15.6814L14.7782 12.8547L12.374 10.4505L9.54735 13.2772L11.9515 15.6814Z" fill="#FF5C34" mask="url(#path-1-inside-1_1604_139328)"/>
<path d="M10 18.7797C14.9093 18.7797 18.8891 14.7999 18.8891 9.89062C18.8891 4.98132 14.9093 1.00154 10 1.00154C5.0907 1.00154 1.11092 4.98132 1.11092 9.89062C1.11092 14.7999 5.0907 18.7797 10 18.7797Z" stroke="#1F3C66" stroke-width="1.77816" stroke-miterlimit="10" stroke-linecap="round" stroke-linejoin="round"/>
</svg>
